<svg xmlns="http://www.w3.org/2000/svg" viewBox="0 0 512 512">
  <defs><linearGradient id="g" x1="0" y1="0" x2="1" y2="1"><stop stop-color="#48d8ff"/><stop offset="1" stop-color="#6d8dff"/></linearGradient></defs>
  <rect width="512" height="512" rx="118" fill="#07111f"/>
  <circle cx="192" cy="190" r="88" fill="url(#g)"/>
  <path d="M146 326c0-55 44-99 99-99 42 0 78 26 92 63 8-4 18-6 28-6 37 0 67 30 67 67s-30 67-67 67H158c-44 0-80-36-80-80 0-42 31-76 68-79Z" fill="#edf5ff"/>
  <path d="M224 351h77l-45 72h37l-88 89 30-77h-42l31-84Z" fill="#48d8ff"/>
</svg>
